<svg width="29" height="28" viewBox="0 0 29 28" fill="none" xmlns="http://www.w3.org/2000/svg">
<path d="M7.31641 0.519531C7.45603 0.487966 7.60088 0.494033 7.73633 0.535156L7.86816 0.587891C7.99625 0.652631 8.10433 0.749816 8.18262 0.868164L8.25 0.993164L10.874 7.11523C10.9259 7.23647 10.9479 7.36787 10.9375 7.49805L10.916 7.62695C10.8844 7.75505 10.8221 7.87301 10.7354 7.9707L10.6406 8.06152L10.6396 8.0625L7.3252 10.7754L7.02344 11.0225L7.19043 11.375C9.24711 15.7371 12.7571 19.248 17.1191 21.3047L17.4727 21.4707L17.7197 21.1689L20.4316 17.8545H20.4326C20.5162 17.7522 20.6229 17.6724 20.7432 17.6211L20.8672 17.5791C21.0381 17.537 21.218 17.5522 21.3799 17.6211V17.6201L27.502 20.2432V20.2441C27.6344 20.3018 27.7493 20.3925 27.835 20.5068L27.9102 20.6289C27.9974 20.8007 28.0217 20.9976 27.9795 21.1855L26.668 26.8701C26.6266 27.0492 26.5257 27.2089 26.3818 27.3232C26.238 27.4376 26.0597 27.5001 25.876 27.5H25.875C12.1455 27.4998 1.00024 16.3758 1 2.625V2.62402C1.00004 2.48638 1.03492 2.35173 1.10059 2.23242L1.17676 2.11816C1.26245 2.01051 1.37342 1.92651 1.49902 1.87402L1.62988 1.83301L7.31738 0.520508L7.31641 0.519531Z" stroke="#002366"/>
</svg>
